<?xml version="1.0" encoding="UTF-8" standalone="no"?>
<svg
   version="1.2"
   viewBox="0 -1 250 80"
   width="250"
   height="80"
   id="svg61"
   sodipodi:docname="logo-white-m.svg"
   inkscape:version="1.4.1 (1:1.4.1+202503302257+93de688d07)"
   xmlns:inkscape="http://www.inkscape.org/namespaces/inkscape"
   xmlns:sodipodi="http://sodipodi.sourceforge.net/DTD/sodipodi-0.dtd"
   xmlns="http://www.w3.org/2000/svg"
   xmlns:svg="http://www.w3.org/2000/svg">
  <sodipodi:namedview
     id="namedview61"
     pagecolor="#000000"
     bordercolor="#000000"
     borderopacity="0.25"
     inkscape:showpageshadow="2"
     inkscape:pageopacity="0.0"
     inkscape:pagecheckerboard="0"
     inkscape:deskcolor="#6d6d6d"
     inkscape:zoom="2.4231537"
     inkscape:cx="124.83731"
     inkscape:cy="7.4283361"
     inkscape:window-width="2529"
     inkscape:window-height="1416"
     inkscape:window-x="31"
     inkscape:window-y="0"
     inkscape:window-maximized="1"
     inkscape:current-layer="svg61" />
  <defs
     id="defs38">
    <linearGradient
       id="P"
       gradientUnits="userSpaceOnUse" />
    <linearGradient
       id="g1"
       x2="1"
       href="#P"
       gradientTransform="matrix(0,-110.667,67.68,0,200.002,326.435)">
      <stop
         offset=".02"
         stop-color="#fdbe32"
         id="stop1" />
      <stop
         offset=".9"
         stop-color="#b71e11"
         id="stop2" />
    </linearGradient>
    <linearGradient
       id="g2"
       x2="1"
       href="#P"
       gradientTransform="matrix(0,-110.667,68.092,0,243.906,326.435)">
      <stop
         offset=".02"
         stop-color="#fdbe32"
         id="stop3" />
      <stop
         offset=".9"
         stop-color="#b71e11"
         id="stop4" />
    </linearGradient>
    <linearGradient
       id="g3"
       x2="1"
       href="#P"
       gradientTransform="matrix(0,-110.667,67.996,0,179.502,326.435)">
      <stop
         offset=".02"
         stop-color="#fdbe32"
         id="stop5" />
      <stop
         offset=".9"
         stop-color="#b71e11"
         id="stop6" />
    </linearGradient>
    <linearGradient
       id="g4"
       x2="1"
       href="#P"
       gradientTransform="matrix(0,-110.667,74.306,0,162.367,326.435)">
      <stop
         offset=".02"
         stop-color="#fdbe32"
         id="stop7" />
      <stop
         offset=".9"
         stop-color="#b71e11"
         id="stop8" />
    </linearGradient>
    <linearGradient
       id="g5"
       x2="1"
       href="#P"
       gradientTransform="matrix(0,-110.667,68.005,0,221.495,326.435)">
      <stop
         offset=".02"
         stop-color="#fdbe32"
         id="stop9" />
      <stop
         offset=".9"
         stop-color="#b71e11"
         id="stop10" />
    </linearGradient>
    <linearGradient
       id="g6"
       x2="1"
       href="#P"
       gradientTransform="matrix(0,-110.667,67.63,0,267.257,326.435)">
      <stop
         offset=".02"
         stop-color="#fdbe32"
         id="stop11" />
      <stop
         offset=".9"
         stop-color="#b71e11"
         id="stop12" />
    </linearGradient>
    <linearGradient
       id="g7"
       x2="1"
       href="#P"
       gradientTransform="matrix(0,-110.667,71.023,0,314.314,326.435)">
      <stop
         offset=".02"
         stop-color="#fdbe32"
         id="stop13" />
      <stop
         offset=".9"
         stop-color="#b71e11"
         id="stop14" />
    </linearGradient>
    <linearGradient
       id="g8"
       x2="1"
       href="#P"
       gradientTransform="matrix(0,-110.667,67.939,0,290.973,326.435)">
      <stop
         offset=".02"
         stop-color="#fdbe32"
         id="stop15" />
      <stop
         offset=".9"
         stop-color="#b71e11"
         id="stop16" />
    </linearGradient>
    <linearGradient
       id="g9"
       x2="1"
       href="#P"
       gradientTransform="matrix(0,264.125,-285.157,0,389.776,123.677)">
      <stop
         stop-color="#fdbe32"
         id="stop17" />
      <stop
         offset=".9"
         stop-color="#b71e11"
         id="stop18" />
    </linearGradient>
    <linearGradient
       id="g10"
       x2="1"
       href="#P"
       gradientTransform="matrix(0,84.16,-73.281,0,318.389,156.234)">
      <stop
         offset=".22"
         stop-color="#fdbe32"
         id="stop19" />
      <stop
         offset="1"
         stop-color="#fdbe32"
         stop-opacity="0"
         id="stop20" />
    </linearGradient>
    <linearGradient
       id="g11"
       x2="1"
       href="#P"
       gradientTransform="matrix(0,264.09,-1068.038,0,206.36,123.688)">
      <stop
         offset=".02"
         stop-color="#fdbe32"
         id="stop21" />
      <stop
         offset=".9"
         stop-color="#b71e11"
         id="stop22" />
    </linearGradient>
    <linearGradient
       id="g12"
       x2="1"
       href="#P"
       gradientTransform="matrix(0,264.031,-614.799,0,180.379,123.704)">
      <stop
         offset=".02"
         stop-color="#fdbe32"
         id="stop23" />
      <stop
         offset=".9"
         stop-color="#b71e11"
         id="stop24" />
    </linearGradient>
    <linearGradient
       id="g13"
       x2="1"
       href="#P"
       gradientTransform="matrix(0,264.073,-784.594,0,399.662,123.695)">
      <stop
         offset=".02"
         stop-color="#fdbe32"
         id="stop25" />
      <stop
         offset=".9"
         stop-color="#b71e11"
         id="stop26" />
    </linearGradient>
    <linearGradient
       id="g14"
       x2="1"
       href="#P"
       gradientTransform="matrix(0,264.122,-936.494,0,282.987,123.677)">
      <stop
         offset=".02"
         stop-color="#fdbe32"
         id="stop27" />
      <stop
         offset=".9"
         stop-color="#b71e11"
         id="stop28" />
    </linearGradient>
    <linearGradient
       id="g15"
       x2="1"
       href="#P"
       gradientTransform="matrix(0,-110.667,41.752,0,245.26,326.435)">
      <stop
         stop-color="#fdbe32"
         id="stop29" />
      <stop
         offset="1"
         stop-color="#b71e11"
         id="stop30" />
    </linearGradient>
    <linearGradient
       id="g16"
       x2="1"
       href="#P"
       gradientTransform="matrix(0,-110.712,29.784,0,285.392,298.821)">
      <stop
         stop-color="#fdbe32"
         id="stop31" />
      <stop
         offset="1"
         stop-color="#b71e11"
         id="stop32" />
    </linearGradient>
    <linearGradient
       id="g17"
       x2="1"
       href="#P"
       gradientTransform="matrix(0,-110.715,70.545,0,218.407,298.822)">
      <stop
         stop-color="#fdbe32"
         id="stop33" />
      <stop
         offset="1"
         stop-color="#b71e11"
         id="stop34" />
    </linearGradient>
    <linearGradient
       id="g18"
       x2="1"
       href="#P"
       gradientTransform="matrix(0,-110.714,70.545,0,248.375,298.822)">
      <stop
         stop-color="#fdbe32"
         id="stop35" />
      <stop
         offset="1"
         stop-color="#b71e11"
         id="stop36" />
    </linearGradient>
    <linearGradient
       id="g19"
       x2="1"
       href="#P"
       gradientTransform="matrix(0,-110.715,70.545,0,231.645,298.822)">
      <stop
         stop-color="#fdbe32"
         id="stop37" />
      <stop
         offset="1"
         stop-color="#b71e11"
         id="stop38" />
    </linearGradient>
  </defs>
  <style
     id="style38">.a{fill:url(#g1)}.b{fill:url(#g2)}.c{fill:url(#g3)}.d{fill:url(#g4)}.e{fill:url(#g5)}.f{fill:url(#g6)}.g{fill:url(#g7)}.h{fill:url(#g8)}.i{fill:url(#g9)}.j{fill:url(#g10)}.k{fill:url(#g11)}.l{fill:url(#g12)}.m{fill:url(#g13)}.n{fill:url(#g14)}.o{fill:#1c2647}.p{fill:url(#g15)}.q{fill:url(#g16)}.r{fill:url(#g17)}.s{fill:url(#g18)}.t{fill:url(#g19)}.u{fill:#fff}</style>
  <path
     class="u"
     d="m 89.2,64.493579 c -1,0.6 -2.2,0.8 -3.3,0.8 -3.4,0 -5.8,-2.4 -5.8,-5.7 0,-3.3 2.4,-5.6 5.8,-5.6 1.7,0 3.2,0.6 4.5,1.8 l 1.8,-1.8 c -1.5,-1.7 -3.7,-2.6 -6.4,-2.6 -5.1,0 -8.7,3.4 -8.7,8.2 0,4.9 3.6,8.3 8.6,8.3 2.3,0 4.7,-0.7 6.3,-2 v -6.4 h -2.8 z m 27.4,3.2 -3.7,-5.3 c 2.2,-0.9 3.4,-2.6 3.4,-5.1 0,-3.6 -2.6,-5.7 -6.8,-5.7 h -6.6 v 16.1 h 3 v -4.7 h 3.6 c 0.2,0 0.4,0 0.6,0 l 3.3,4.7 z m -3.3,-10.4 c 0,2 -1.3,3.2 -4,3.2 h -3.5 v -6.4 h 3.5 c 2.7,0 4,1.2 4,3.2 z m 13.3,10.4 h 2.9 v -16.1 h -2.9 z m 14.2,0 h 11.4 v -2.5 h -8.4 v -13.6 h -3 z m 20.7,0 h 11.4 v -2.5 h -8.4 v -13.6 h -3 z"
     id="path61" />
  <path
     class="u"
     d="m 46.950002,44.042837 -0.1,-32.8 h -5 l -12.8,21.7 -13,-21.7 h -5.000001 v 32.8 h 5.800001 v -21.5 l 10.8,17.7 h 2.7 l 10.8,-18 v 21.8 z m 15,-5.1 v -9.1 h 15.8 v -5 h -15.8 v -8.5 h 17.8 v -5.1 h -23.9 v 32.8 h 24.6 v -5.1 z m 61.199998,5.1 v -32.8 h -5 l -12.8,21.7 -13.099998,-21.7 h -5 v 32.8 h 5.8 v -21.5 l 10.799998,17.7 h 2.7 l 10.8,-18 0.1,21.8 z m 33.4,0 h 6.4 l -14.8,-32.8 h -6 l -14.8,32.8 h 6.3 l 3.2,-7.6 h 16.4 z m -17.6,-12.4 6.1,-14.3 6.2,14.3 z m 51.3,-20.4 v 22.2 l -18.1,-22.2 h -5 v 32.8 h 6 v -22.2 l 18.1,22.2 h 5 v -32.8 z m 13.5,13 h 4.3 l 0.4,-13 h -5.1 z m 21.9,20.3 c 9,0 13.3,-4.5 13.3,-9.8 0,-12 -19.5,-7.5 -19.5,-14.4 0,-2.5 2.1,-4.5 7.2,-4.5 2.8,0 6.1,0.8 9,2.6 l 1.9,-4.8 c -2.8,-1.8 -7,-2.9 -10.9,-2.9 -9,0 -13.2,4.5 -13.2,9.8 0,12.2 19.5,7.6 19.5,14.7 0,2.4 -2.2,4.2 -7.3,4.2 -4,0 -8.2,-1.5 -10.8,-3.6 l -2.1,4.8 c 2.7,2.3 7.8,3.9 12.9,3.9 z"
     id="path60" />
</svg>
